<svg data-v-423bf9ae="" xmlns="http://www.w3.org/2000/svg" viewBox="0 0 190 90" class="iconLeft"><!----><defs data-v-423bf9ae=""><linearGradient data-v-423bf9ae="" gradientTransform="rotate(25)" id="542529d3-9ad4-4104-9acc-15812f1d970a" x1="0%" y1="0%" x2="100%" y2="0%"><stop data-v-423bf9ae="" offset="0%" style="stop-color: rgb(75, 39, 155); stop-opacity: 1;"></stop><stop data-v-423bf9ae="" offset="100%" style="stop-color: rgb(223, 153, 216); stop-opacity: 1;"></stop></linearGradient></defs><!----><g data-v-423bf9ae="" id="4dce42af-e106-42fd-8ed1-535bf953e2e6" fill="#ffffff" transform="matrix(6.1224488604322,0,0,6.1224488604322,107.4285706974029,-10.714282615539318)"><path d="M0.42 6.52C0.42 6.27 0.46 6.05 0.52 5.82C0.80 4.89 1.64 4.21 2.60 4.20L2.62 4.20C3.84 4.20 4.83 5.25 4.83 6.52C4.83 6.61 4.80 6.69 4.77 6.76C4.68 6.96 4.48 7.08 4.27 7.08C4.05 7.08 3.85 6.96 3.77 6.76C3.72 6.69 3.71 6.61 3.71 6.52C3.71 6.20 3.58 5.89 3.37 5.67C3.16 5.45 2.90 5.32 2.62 5.32C2.34 5.32 2.07 5.45 1.88 5.67C1.65 5.89 1.54 6.20 1.54 6.52C1.54 6.61 1.53 6.69 1.48 6.76C1.39 6.96 1.20 7.08 0.98 7.08C0.76 7.08 0.57 6.96 0.48 6.76C0.45 6.69 0.42 6.61 0.42 6.52ZM4.27 10.89C3.91 10.89 3.60 11.13 3.50 11.45L0.77 7.31C0.84 7.34 0.91 7.34 0.98 7.34C1.34 7.34 1.65 7.10 1.75 6.76L4.48 10.92C4.41 10.89 4.34 10.89 4.27 10.89ZM4.83 11.69C4.83 11.93 4.79 12.17 4.72 12.38C4.44 13.31 3.61 14 2.63 14L2.62 14C1.41 14 0.42 12.96 0.42 11.69C0.42 11.59 0.45 11.51 0.48 11.44C0.57 11.26 0.76 11.13 0.98 11.13C1.20 11.13 1.39 11.26 1.48 11.44C1.53 11.51 1.54 11.59 1.54 11.69C1.54 12.01 1.65 12.32 1.88 12.54C2.07 12.75 2.34 12.88 2.62 12.88C2.90 12.88 3.16 12.75 3.37 12.54C3.58 12.32 3.71 12.01 3.71 11.69C3.71 11.59 3.72 11.51 3.77 11.44C3.85 11.26 4.05 11.13 4.27 11.13C4.48 11.13 4.68 11.26 4.77 11.44C4.80 11.51 4.83 11.59 4.83 11.69ZM6.79 4.76C6.79 4.45 6.54 4.20 6.23 4.20C5.92 4.20 5.67 4.45 5.67 4.76L5.67 11.12C5.82 10.98 6.02 10.88 6.23 10.88C6.45 10.88 6.65 10.98 6.79 11.12ZM9.53 10.88C9.76 10.89 9.95 10.99 10.09 11.13L10.09 4.76C10.09 4.45 9.84 4.20 9.53 4.20L9.52 4.20C9.21 4.20 8.96 4.45 8.96 4.76L8.96 11.13C9.10 10.99 9.31 10.89 9.52 10.88ZM12.82 4.20C12.52 4.20 12.26 4.45 12.26 4.76L12.26 11.12C12.40 10.98 12.60 10.88 12.82 10.88C13.03 10.88 13.23 10.98 13.38 11.12L13.38 4.76C13.38 4.45 13.13 4.20 12.82 4.20ZM7.88 12.88C7.28 12.88 6.79 12.33 6.79 11.69L6.79 11.63C6.76 11.34 6.52 11.12 6.23 11.12C5.94 11.12 5.70 11.34 5.67 11.63L5.67 11.69C5.67 12.96 6.66 14 7.88 14C8.44 14 8.97 13.78 9.37 13.40C9.10 13.09 8.90 12.71 8.81 12.29C8.61 12.64 8.27 12.88 7.88 12.88ZM12.82 11.13C12.60 11.13 12.40 11.26 12.32 11.44C12.28 11.51 12.26 11.59 12.26 11.69C12.26 12.01 12.14 12.31 11.93 12.54C11.72 12.75 11.45 12.88 11.17 12.88C10.89 12.88 10.63 12.75 10.43 12.54C10.21 12.31 10.09 12.01 10.09 11.69C10.09 11.59 10.07 11.51 10.04 11.44C9.94 11.26 9.76 11.13 9.53 11.13C9.31 11.13 9.13 11.26 9.03 11.44C8.99 11.51 8.97 11.59 8.97 11.69C8.97 12.96 9.97 14 11.17 14L11.19 14C12.17 13.99 12.99 13.31 13.27 12.38C13.34 12.17 13.38 11.93 13.38 11.69C13.38 11.59 13.36 11.51 13.31 11.44C13.23 11.26 13.03 11.13 12.82 11.13Z"></path></g><!----><g data-v-423bf9ae="" id="c0b9f7dd-13a0-4fdf-b3e4-0f31d559301b" transform="matrix(2.8125,0,0,2.8125,0,0)" stroke="none" fill="#ffffff"><path d="M16 32c8.837 0 16-7.163 16-16S24.837 0 16 0 0 7.163 0 16s7.163 16 16 16zM14.817 6.421h2v8.886h8.887v2H14.817V6.421zm-5.959.437h2v14.283h14.283v2H8.858V6.858z"></path></g><!----></svg>